# xmcd
#
# Track frame offsets:
#	150
#	15868
#	27896
#	46007
#	55949
#	72199
#	86989
#	107627
#	122610
#	136538
#	149630
#	166704
#	178677
#	196379
#	208568
#
# Disc length: 2927 seconds
#
# Revision: 1
# Processed by: cddbd v1.5.2PL0 Copyright (c) Steve Scherf et al.
# Submitted via: audiograbber 1.83.01
#
DISCID=c30b6d0f
DTITLE=Leonardo Favio - Los 30 mejores
DYEAR=2008
DGENRE=Romántica
TTITLE0=Quiero aprender de memoria
TTITLE1=La rubia del cabaret
TTITLE2=No vale la pena
TTITLE3=Mi tristeza
TTITLE4=El portón de Mario
TTITLE5=Eres mi mujer ... mi esposa
TTITLE6=Chiquilladas
TTITLE7=Si yo fuera tu amante
TTITLE8=Mi amante niña, mi compañera
TTITLE9=Tu amor se fue
TTITLE10=Ella ya me olvidó
TTITLE11=Qué tonto fui
TTITLE12=Desnúdate, no des vuelta la cara
TTITLE13=De amor ya nadie muere
TTITLE14=No me importa que diga la gente
EXTD=
EXTT0=
EXTT1=
EXTT2=
EXTT3=
EXTT4=
EXTT5=
EXTT6=
EXTT7=
EXTT8=
EXTT9=
EXTT10=
EXTT11=
EXTT12=
EXTT13=
EXTT14=
PLAYORDER=
